<svg width="280" height="120" xmlns="http://www.w3.org/2000/svg" xmlns:xlink="http://www.w3.org/1999/xlink"
    xml:space="preserve" overflow="hidden">
    <g id='text'>
        <!-- F -->
        <rect x="0" y="0" width="10" height="10" fill="#191970" fill-opacity="1" />
        <rect x="0" y="10" width="10" height="10" fill="#191970" fill-opacity="1" />
        <rect x="0" y="20" width="10" height="10" fill="#191970" fill-opacity="1" />
        <rect x="0" y="30" width="10" height="10" fill="#191970" fill-opacity="1" />
        <rect x="0" y="40" width="10" height="10" fill="#191970" fill-opacity="1" />
        <rect x="10" y="0" width="10" height="10" fill="#191970" fill-opacity="1" />
        <rect x="10" y="20" width="10" height="10" fill="#191970" fill-opacity="1" />
        <rect x="20" y="0" width="10" height="10" fill="#191970" fill-opacity="1" />
        <rect x="20" y="20" width="10" height="10" fill="#191970" fill-opacity="1" />
        <!-- I -->
        <rect x="40" y="0" width="10" height="10" fill="#191970" fill-opacity="1" />
        <rect x="40" y="10" width="10" height="10" fill="#191970" fill-opacity="1" />
        <rect x="40" y="20" width="10" height="10" fill="#191970" fill-opacity="1" />
        <rect x="40" y="30" width="10" height="10" fill="#191970" fill-opacity="1" />
        <rect x="40" y="40" width="10" height="10" fill="#191970" fill-opacity="1" />
        <!-- N -->
        <rect x="60" y="0" width="10" height="10" fill="#191970" fill-opacity="1" />
        <rect x="60" y="10" width="10" height="10" fill="#191970" fill-opacity="1" />
        <rect x="60" y="20" width="10" height="10" fill="#191970" fill-opacity="1" />
        <rect x="60" y="30" width="10" height="10" fill="#191970" fill-opacity="1" />
        <rect x="60" y="40" width="10" height="10" fill="#191970" fill-opacity="1" />
        <rect x="70" y="10" width="10" height="10" fill="#191970" fill-opacity="1" />
        <rect x="80" y="20" width="10" height="10" fill="#191970" fill-opacity="1" />
        <rect x="90" y="30" width="10" height="10" fill="#191970" fill-opacity="1" />
        <rect x="100" y="0" width="10" height="10" fill="#191970" fill-opacity="1" />
        <rect x="100" y="10" width="10" height="10" fill="#191970" fill-opacity="1" />
        <rect x="100" y="20" width="10" height="10" fill="#191970" fill-opacity="1" />
        <rect x="100" y="30" width="10" height="10" fill="#191970" fill-opacity="1" />
        <rect x="100" y="40" width="10" height="10" fill="#191970" fill-opacity="1" />
        <!-- A -->
        <rect x="120" y="10" width="10" height="10" fill="#191970" fill-opacity="1" />
        <rect x="120" y="20" width="10" height="10" fill="#191970" fill-opacity="1" />
        <rect x="120" y="30" width="10" height="10" fill="#191970" fill-opacity="1" />
        <rect x="120" y="40" width="10" height="10" fill="#191970" fill-opacity="1" />
        <rect x="130" y="0" width="10" height="10" fill="#191970" fill-opacity="1" />
        <rect x="130" y="30" width="10" height="10" fill="#191970" fill-opacity="1" />
        <rect x="140" y="10" width="10" height="10" fill="#191970" fill-opacity="1" />
        <rect x="140" y="20" width="10" height="10" fill="#191970" fill-opacity="1" />
        <rect x="140" y="30" width="10" height="10" fill="#191970" fill-opacity="1" />
        <rect x="140" y="40" width="10" height="10" fill="#191970" fill-opacity="1" />
        <!-- P -->
        <rect x="160" y="0" width="10" height="10" fill="#191970" fill-opacity="1" />
        <rect x="160" y="10" width="10" height="10" fill="#191970" fill-opacity="1" />
        <rect x="160" y="20" width="10" height="10" fill="#191970" fill-opacity="1" />
        <rect x="160" y="30" width="10" height="10" fill="#191970" fill-opacity="1" />
        <rect x="160" y="40" width="10" height="10" fill="#191970" fill-opacity="1" />
        <rect x="170" y="0" width="10" height="10" fill="#191970" fill-opacity="1" />
        <rect x="170" y="20" width="10" height="10" fill="#191970" fill-opacity="1" />
        <rect x="180" y="0" width="10" height="10" fill="#191970" fill-opacity="1" />
        <rect x="180" y="10" width="10" height="10" fill="#191970" fill-opacity="1" />
        <rect x="180" y="20" width="10" height="10" fill="#191970" fill-opacity="1" />
        <!-- S -->
        <rect x="200" y="0" width="10" height="10" fill="#191970" fill-opacity="1" />
        <rect x="200" y="10" width="10" height="10" fill="#191970" fill-opacity="1" />
        <rect x="200" y="20" width="10" height="10" fill="#191970" fill-opacity="1" />
        <rect x="200" y="40" width="10" height="10" fill="#191970" fill-opacity="1" />
        <rect x="210" y="0" width="10" height="10" fill="#191970" fill-opacity="1" />
        <rect x="210" y="20" width="10" height="10" fill="#191970" fill-opacity="1" />
        <rect x="210" y="40" width="10" height="10" fill="#191970" fill-opacity="1" />
        <rect x="220" y="0" width="10" height="10" fill="#191970" fill-opacity="1" />
        <rect x="220" y="20" width="10" height="10" fill="#191970" fill-opacity="1" />
        <rect x="220" y="30" width="10" height="10" fill="#191970" fill-opacity="1" />
        <rect x="220" y="40" width="10" height="10" fill="#191970" fill-opacity="1" />
    </g>
    <g id='line'>
        <!-- line -->
        <rect x="0" y="70" width="10" height="10" fill="#feaa00" fill-opacity="1" />
        <rect x="10" y="70" width="10" height="10" fill="#feaa00" fill-opacity="1" />
        <rect x="20" y="70" width="10" height="10" fill="#feaa00" fill-opacity="1" />
        <rect x="30" y="70" width="10" height="10" fill="#feaa00" fill-opacity="1" />
        <rect x="40" y="70" width="10" height="10" fill="#feaa00" fill-opacity="1" />
        <rect x="50" y="70" width="10" height="10" fill="#feaa00" fill-opacity="1" />
        <rect x="60" y="70" width="10" height="10" fill="#feaa00" fill-opacity="1" />
        <rect x="70" y="70" width="10" height="10" fill="#feaa00" fill-opacity="1" />
        <rect x="80" y="70" width="10" height="10" fill="#feaa00" fill-opacity="1" />
        <rect x="90" y="70" width="10" height="10" fill="#feaa00" fill-opacity="1" />
        <rect x="100" y="70" width="10" height="10" fill="#feaa00" fill-opacity="1" />
        <rect x="110" y="70" width="10" height="10" fill="#feaa00" fill-opacity="1" />
        <rect x="120" y="70" width="10" height="10" fill="#feaa00" fill-opacity="1" />
        <rect x="130" y="70" width="10" height="10" fill="#feaa00" fill-opacity="1" />
        <rect x="140" y="70" width="10" height="10" fill="#feaa00" fill-opacity="1" />
        <rect x="150" y="70" width="10" height="10" fill="#feaa00" fill-opacity="1" />
        <rect x="160" y="70" width="10" height="10" fill="#feaa00" fill-opacity="1" />
        <rect x="170" y="70" width="10" height="10" fill="#feaa00" fill-opacity="1" />
        <rect x="180" y="70" width="10" height="10" fill="#feaa00" fill-opacity="1" />
        <rect x="190" y="70" width="10" height="10" fill="#feaa00" fill-opacity="1" />
        <rect x="200" y="70" width="10" height="10" fill="#feaa00" fill-opacity="1" />
        <rect x="210" y="70" width="10" height="10" fill="#feaa00" fill-opacity="1" />
        <rect x="220" y="70" width="10" height="10" fill="#feaa00" fill-opacity="1" />
        <rect x="230" y="70" width="10" height="10" fill="#feaa00" fill-opacity="1" />
        <rect x="240" y="70" width="10" height="10" fill="#feaa00" fill-opacity="1" />
        <rect x="250" y="70" width="10" height="10" fill="#feaa00" fill-opacity="1" />
        <rect x="260" y="60" width="10" height="10" fill="#feaa00" fill-opacity="1" />
        <rect x="260" y="80" width="10" height="10" fill="#feaa00" fill-opacity="1" />
        <rect x="270" y="70" width="10" height="10" fill="#feaa00" fill-opacity="1" />
        <rect x="160" y="80" width="10" height="10" fill="#feaa00" fill-opacity="1" />
        <rect x="170" y="90" width="10" height="10" fill="#feaa00" fill-opacity="1" />
        <rect x="180" y="100" width="10" height="10" fill="#feaa00" fill-opacity="1" />
        <rect x="190" y="100" width="10" height="10" fill="#feaa00" fill-opacity="1" />
        <rect x="200" y="100" width="10" height="10" fill="#feaa00" fill-opacity="1" />
        <rect x="210" y="100" width="10" height="10" fill="#feaa00" fill-opacity="1" />
        <rect x="220" y="90" width="10" height="10" fill="#feaa00" fill-opacity="1" />
        <rect x="220" y="110" width="10" height="10" fill="#feaa00" fill-opacity="1" />
        <rect x="230" y="100" width="10" height="10" fill="#feaa00" fill-opacity="1" />
    </g>
</svg>