<svg width="3634" height="1535" xmlns="http://www.w3.org/2000/svg" xmlns:xlink="http://www.w3.org/1999/xlink" xml:space="preserve" overflow="hidden"><g transform="translate(-417 -293)"><g><rect x="418" y="686" width="130" height="129" fill="#191970" fill-opacity="1"/><rect x="418" y="556" width="130" height="130" fill="#191970" fill-opacity="1"/><rect x="548" y="556" width="130" height="130" fill="#191970" fill-opacity="1"/><rect x="418" y="426" width="130" height="130" fill="#191970" fill-opacity="1"/><rect x="418" y="297" width="130" height="129" fill="#191970" fill-opacity="1"/><rect x="548" y="297" width="130" height="129" fill="#191970" fill-opacity="1"/><rect x="935" y="686" width="129" height="129" fill="#191970" fill-opacity="1"/><rect x="935" y="556" width="129" height="130" fill="#191970" fill-opacity="1"/><rect x="935" y="426" width="129" height="130" fill="#191970" fill-opacity="1"/><rect x="935" y="297" width="129" height="129" fill="#191970" fill-opacity="1"/><rect x="1196" y="686" width="130" height="129" fill="#191970" fill-opacity="1"/><rect x="1196" y="556" width="130" height="130" fill="#191970" fill-opacity="1"/><rect x="1196" y="426" width="130" height="130" fill="#191970" fill-opacity="1"/><rect x="1196" y="297" width="130" height="129" fill="#191970" fill-opacity="1"/><rect x="1715" y="687" width="130" height="130" fill="#191970" fill-opacity="1"/><rect x="1715" y="556" width="130" height="130" fill="#191970" fill-opacity="1"/><rect x="1715" y="426" width="130" height="130" fill="#191970" fill-opacity="1"/><rect x="1715" y="297" width="130" height="129" fill="#191970" fill-opacity="1"/><rect x="1455" y="556" width="129" height="130" fill="#191970" fill-opacity="1"/><rect x="1326" y="426" width="129" height="130" fill="#191970" fill-opacity="1"/><rect x="2105" y="297" width="130" height="129" fill="#191970" fill-opacity="1"/><rect x="2235" y="686" width="130" height="129" fill="#191970" fill-opacity="1"/><rect x="2235" y="556" width="129" height="130" fill="#191970" fill-opacity="1"/><rect x="2236" y="426" width="129" height="130" fill="#191970" fill-opacity="1"/><rect x="1976" y="426" width="129" height="130" fill="#191970" fill-opacity="1"/><rect x="1975" y="556" width="129" height="130" fill="#191970" fill-opacity="1"/><rect x="1974" y="683" width="130" height="129" fill="#191970" fill-opacity="1"/><rect x="2105" y="683" width="130" height="129" fill="#191970" fill-opacity="1"/><rect x="2495" y="683" width="129" height="129" fill="#191970" fill-opacity="1"/><rect x="2495" y="553" width="129" height="130" fill="#191970" fill-opacity="1"/><rect x="2495" y="424" width="129" height="129" fill="#191970" fill-opacity="1"/><rect x="2495" y="294" width="129" height="130" fill="#191970" fill-opacity="1"/><rect x="2624" y="294" width="130" height="130" fill="#191970" fill-opacity="1"/><rect x="2754" y="294" width="129" height="130" fill="#191970" fill-opacity="1"/><rect x="2754" y="424" width="129" height="129" fill="#191970" fill-opacity="1"/><rect x="2754" y="553" width="129" height="130" fill="#191970" fill-opacity="1"/><rect x="2624" y="553" width="130" height="130" fill="#191970" fill-opacity="1"/><rect x="3271" y="686" width="130" height="129" fill="#191970" fill-opacity="1"/><rect x="3012" y="556" width="130" height="130" fill="#191970" fill-opacity="1"/><rect x="3012" y="426" width="130" height="130" fill="#191970" fill-opacity="1"/><rect x="3012" y="297" width="130" height="129" fill="#191970" fill-opacity="1"/><rect x="3142" y="297" width="129" height="129" fill="#191970" fill-opacity="1"/><rect x="3271" y="297" width="130" height="129" fill="#191970" fill-opacity="1"/><rect x="3271" y="815" width="130" height="130" fill="#191970" fill-opacity="1"/><rect x="3271" y="556" width="130" height="130" fill="#191970" fill-opacity="1"/><rect x="3142" y="556" width="129" height="130" fill="#191970" fill-opacity="1"/><rect x="3142" y="815" width="129" height="130" fill="#191970" fill-opacity="1"/><rect x="3012" y="815" width="129" height="130" fill="#191970" fill-opacity="1"/><rect x="2495" y="812" width="129" height="130" fill="#191970" fill-opacity="1"/><rect x="2234" y="812" width="130" height="130" fill="#191970" fill-opacity="1"/><rect x="1973" y="812" width="130" height="130" fill="#191970" fill-opacity="1"/><rect x="1715" y="815" width="130" height="130" fill="#191970" fill-opacity="1"/><rect x="1196" y="815" width="130" height="130" fill="#191970" fill-opacity="1"/><rect x="1586" y="686" width="130" height="129" fill="#191970" fill-opacity="1"/><rect x="935" y="815" width="130" height="130" fill="#191970" fill-opacity="1"/><rect x="676" y="297" width="129" height="129" fill="#191970" fill-opacity="1"/><rect x="676" y="556" width="129" height="130" fill="#191970" fill-opacity="1"/><rect x="418" y="815" width="130" height="130" fill="#191970" fill-opacity="1"/><rect x="418" y="1179" width="130" height="129" fill="#FEAA00" fill-opacity="1"/><rect x="548" y="1179" width="130" height="129" fill="#FEAA00" fill-opacity="1"/><rect x="678" y="1179" width="129" height="129" fill="#FEAA00" fill-opacity="1"/><rect x="807" y="1179" width="130" height="129" fill="#FEAA00" fill-opacity="1"/><rect x="937" y="1179" width="130" height="129" fill="#FEAA00" fill-opacity="1"/><rect x="1067" y="1179" width="129" height="129" fill="#FEAA00" fill-opacity="1"/><rect x="1196" y="1179" width="130" height="129" fill="#FEAA00" fill-opacity="1"/><rect x="1326" y="1179" width="129" height="129" fill="#FEAA00" fill-opacity="1"/><rect x="1455" y="1179" width="130" height="129" fill="#FEAA00" fill-opacity="1"/><rect x="1585" y="1179" width="130" height="129" fill="#FEAA00" fill-opacity="1"/><rect x="1715" y="1179" width="129" height="129" fill="#FEAA00" fill-opacity="1"/><rect x="1844" y="1179" width="130" height="129" fill="#FEAA00" fill-opacity="1"/><rect x="1974" y="1179" width="130" height="129" fill="#FEAA00" fill-opacity="1"/><rect x="2104" y="1179" width="129" height="129" fill="#FEAA00" fill-opacity="1"/><rect x="2233" y="1179" width="130" height="129" fill="#FEAA00" fill-opacity="1"/><rect x="2363" y="1179" width="130" height="129" fill="#FEAA00" fill-opacity="1"/><rect x="2493" y="1179" width="129" height="129" fill="#FEAA00" fill-opacity="1"/><rect x="2622" y="1179" width="130" height="129" fill="#FEAA00" fill-opacity="1"/><rect x="2752" y="1179" width="130" height="129" fill="#FEAA00" fill-opacity="1"/><rect x="2882" y="1179" width="129" height="129" fill="#FEAA00" fill-opacity="1"/><rect x="3011" y="1179" width="130" height="129" fill="#FEAA00" fill-opacity="1"/><rect x="3141" y="1179" width="130" height="129" fill="#FEAA00" fill-opacity="1"/><rect x="3271" y="1179" width="129" height="129" fill="#FEAA00" fill-opacity="1"/><rect x="3400" y="1179" width="130" height="129" fill="#FEAA00" fill-opacity="1"/><rect x="3657" y="1179" width="130" height="129" fill="#FEAA00" fill-opacity="1"/><rect x="3787" y="1049" width="130" height="130" fill="#FEAA00" fill-opacity="1"/><rect x="3922" y="1179" width="129" height="129" fill="#FEAA00" fill-opacity="1"/><rect x="3792" y="1308" width="130" height="130" fill="#FEAA00" fill-opacity="1"/><rect x="2493" y="1308" width="129" height="130" fill="#FEAA00" fill-opacity="1"/><rect x="2622" y="1438" width="130" height="130" fill="#FEAA00" fill-opacity="1"/><rect x="2882" y="1568" width="129" height="129" fill="#FEAA00" fill-opacity="1"/><rect x="3011" y="1568" width="130" height="129" fill="#FEAA00" fill-opacity="1"/><rect x="3141" y="1568" width="130" height="129" fill="#FEAA00" fill-opacity="1"/><rect x="3271" y="1438" width="129" height="130" fill="#FEAA00" fill-opacity="1"/><rect x="3405" y="1568" width="130" height="129" fill="#FEAA00" fill-opacity="1"/><rect x="3276" y="1697" width="129" height="130" fill="#FEAA00" fill-opacity="1"/><rect x="2752" y="1568" width="130" height="129" fill="#FEAA00" fill-opacity="1"/><rect x="3530" y="1179" width="129" height="129" fill="#FEAA00" fill-opacity="1"/></g></g></svg>